Japan war newsreel 1940-1945

Format : AVI
 Format/Info : Audio Video Interleave
 File size : 213 MiB
 Duration : 13mn 54s
 Overall bit rate : 2 141 Kbps
 Writing application : Lavf52.32.0

Video
 ID : 0
 Format : xvid
 Codec ID : xvid
 Duration : 13mn 54s
 Bit rate : 1 999 Kbps
 Width : 720 pixels
 Height : 480 pixels
 Display aspect ratio : 16:9
 Frame rate : 29.970 fps
 Standard : NTSC
 Bits/(Pixel*Frame) : 0.193
 Stream size : 199 MiB (93%)

Audio
 ID : 1
 Format : MPEG Audio
 Format version : Version 1
 Format profile : Layer 3
 Mode : Joint stereo
 Mode extension : MS Stereo
 Codec ID : 55
 Codec ID/Hint : MP3
 Duration : 13mn 54s
 Bit rate mode : Constant
 Bit rate : 128 Kbps
 Channel(s) : 2 channels
 Sampling rate : 44.1 KHz
 Compression mode : Lossy
 Stream size : 12.7 MiB (6%)
 Alignment : Aligned on interleaves
 Interleave, duration : 26 ms (0.78 video frame)
 Writing library : LAME3.97